<svg xmlns="http://www.w3.org/2000/svg" viewBox="0 0 297 297"><path d="M118.134 15.459H84.25l-7.99 33.198h39.211zm47.403 0h-34.071l-2.662 33.198H168.2zm-54.033 82.635l2.858-35.636H72.939l-8.577 35.636zm75.099 13.803l3.689 45.972h56.736l-11.065-45.972zM49.976 157.869h56.732l3.688-45.972H61.04zm9.267-95.411H31.629L18.266 98.094h32.399zm161.498-13.801l-7.99-33.198h-33.887l2.664 33.198zm-51.434 13.801h-41.611l-2.857 35.636h47.325zm90.889-13.801l-10.17-27.119a9.37 9.37 0 0 0-8.773-6.079h-14.807l7.989 33.198h25.761zM70.555 15.459H55.746a9.37 9.37 0 0 0-8.772 6.079l-10.17 27.119h25.761l7.99-33.198zm102.717 96.438h-49.541l-3.687 45.972h56.914zm73.062-13.803h32.4l-13.363-35.636h-27.613zm-60.838 0h47.145l-8.578-35.636h-41.427zm102.135 59.775a9.37 9.37 0 0 0 8.772-12.659l-12.492-33.313h-34.255l11.063 45.973h26.912zm-251.353 0l11.066-45.973H13.089L.597 145.21a9.37 9.37 0 0 0 8.772 12.659h26.909zm-5.36 114.303a9.37 9.37 0 0 0 9.369 9.369h216.426a9.37 9.37 0 0 0 9.369-9.369V170.985H30.918v101.187zm102.123-39.35a9.369 9.369 0 0 1-6.625-15.995l30.918-30.918a9.37 9.37 0 0 1 13.25 13.251l-14.924 14.924h8.299a9.368 9.368 0 0 1 6.625 15.994l-30.918 30.918a9.345 9.345 0 0 1-6.625 2.744 9.37 9.37 0 0 1-6.625-15.995l14.924-14.923h-8.299z" fill="#ffdd17"/></svg>